<mxfile host="65bd71144e">
    <diagram id="7JzNv-7phFswcEIXKfGw" name="Page-1">
        <mxGraphModel dx="794" dy="777" grid="1" gridSize="10" guides="1" tooltips="1" connect="1" arrows="1" fold="1" page="1" pageScale="1" pageWidth="850" pageHeight="1100" math="0" shadow="0">
            <root>
                <mxCell id="0"/>
                <mxCell id="1" parent="0"/>
                <mxCell id="66" style="edgeStyle=none;html=1;labelBackgroundColor=none;fontColor=default;strokeColor=#FFFFFF;fillColor=#000000;" edge="1" parent="1" source="62" target="42">
                    <mxGeometry relative="1" as="geometry"/>
                </mxCell>
                <mxCell id="67" value="Resolve domain &lt;br&gt;by DNS server" style="edgeLabel;html=1;align=center;verticalAlign=middle;resizable=0;points=[];fontColor=default;" vertex="1" connectable="0" parent="66">
                    <mxGeometry x="-0.311" y="4" relative="1" as="geometry">
                        <mxPoint x="23" y="34" as="offset"/>
                    </mxGeometry>
                </mxCell>
                <mxCell id="62" value="" style="verticalLabelPosition=bottom;verticalAlign=top;html=1;shape=mxgraph.basic.diag_round_rect;dx=6;shadow=1;dashed=1;labelBackgroundColor=none;fillColor=none;" vertex="1" parent="1">
                    <mxGeometry x="20" y="286.28999999999996" width="100" height="239.5" as="geometry"/>
                </mxCell>
                <mxCell id="81" style="edgeStyle=none;html=1;entryX=1;entryY=0.75;entryDx=0;entryDy=0;labelBackgroundColor=none;fontColor=default;strokeColor=#FFFFFF;fillColor=#000000;" edge="1" parent="1" source="59" target="36">
                    <mxGeometry relative="1" as="geometry"/>
                </mxCell>
                <mxCell id="59" value="" style="verticalLabelPosition=bottom;verticalAlign=top;html=1;shape=mxgraph.basic.rect;fillColor2=none;strokeWidth=1;size=20;indent=5;shadow=1;labelBackgroundColor=none;fillColor=none;dashed=1;" vertex="1" parent="1">
                    <mxGeometry x="590" y="286.28999999999996" width="350" height="290" as="geometry"/>
                </mxCell>
                <mxCell id="55" value="5.0) Retrieve certificate &lt;br&gt;for services" style="edgeStyle=none;html=1;entryX=0.5;entryY=1;entryDx=0;entryDy=0;labelBackgroundColor=none;fontColor=default;strokeColor=#FFFFFF;fillColor=#000000;" edge="1" parent="1" source="36" target="38">
                    <mxGeometry x="0.0326" y="58" relative="1" as="geometry">
                        <mxPoint as="offset"/>
                    </mxGeometry>
                </mxCell>
                <mxCell id="60" style="edgeStyle=none;html=1;entryX=0;entryY=0.327;entryDx=0;entryDy=0;entryPerimeter=0;labelBackgroundColor=none;fontColor=default;strokeColor=#FFFFFF;fillColor=#000000;exitX=1;exitY=0.25;exitDx=0;exitDy=0;" edge="1" parent="1" source="36" target="59">
                    <mxGeometry relative="1" as="geometry"/>
                </mxCell>
                <mxCell id="82" style="edgeStyle=none;html=1;entryX=1.02;entryY=0.817;entryDx=0;entryDy=0;entryPerimeter=0;labelBackgroundColor=none;fontColor=default;strokeColor=#FFFFFF;fillColor=#000000;" edge="1" parent="1" target="62">
                    <mxGeometry relative="1" as="geometry">
                        <mxPoint x="450" y="440" as="sourcePoint"/>
                    </mxGeometry>
                </mxCell>
                <mxCell id="36" value="Traefik&#10;(Reverse Proxy)" style="shape=image;verticalLabelPosition=bottom;labelBackgroundColor=none;verticalAlign=top;aspect=fixed;imageAspect=0;image=https://raw.githubusercontent.com/walkxcode/dashboard-icons/main/png/traefik.png;strokeColor=#FFFFFF;fillColor=#000000;fontColor=default;" vertex="1" parent="1">
                    <mxGeometry x="450.04" y="359.23999999999995" width="80" height="93.6" as="geometry"/>
                </mxCell>
                <mxCell id="37" value="" style="shape=image;verticalLabelPosition=bottom;labelBackgroundColor=none;verticalAlign=top;aspect=fixed;imageAspect=0;image=https://raw.githubusercontent.com/walkxcode/dashboard-icons/main/png/letsencrypt.png;strokeColor=#FFFFFF;fillColor=#000000;fontColor=default;" vertex="1" parent="1">
                    <mxGeometry x="456.50000000000006" y="35.519999999999996" width="71" height="75.19" as="geometry"/>
                </mxCell>
                <mxCell id="39" style="edgeStyle=none;html=1;entryX=0.5;entryY=1;entryDx=0;entryDy=0;strokeColor=#FFFFFF;fillColor=#000000;fontColor=default;labelBackgroundColor=none;" edge="1" parent="1" source="38" target="37">
                    <mxGeometry relative="1" as="geometry"/>
                </mxCell>
                <mxCell id="46" value="Request SSL certificate &lt;br&gt;from provider" style="edgeLabel;html=1;align=center;verticalAlign=middle;resizable=0;points=[];fillColor=#000000;fontColor=default;labelBackgroundColor=none;strokeColor=#FFFFFF;" vertex="1" connectable="0" parent="39">
                    <mxGeometry x="0.5034" y="-1" relative="1" as="geometry">
                        <mxPoint x="-73" y="24" as="offset"/>
                    </mxGeometry>
                </mxCell>
                <mxCell id="38" value="Cert-manager (Certificate management)" style="shape=image;verticalLabelPosition=middle;labelBackgroundColor=none;verticalAlign=middle;aspect=fixed;imageAspect=0;image=data:image/png,iVBORw0KGgoAAAANSUhEUgAAAOUAAADdCAMAAABzPkXkAAAAkFBMVEUybOX///8uauUbYuQqaOQjZeQoZ+QZYeQTX+MLXeO3x/QIXOPR2vf8/f/3+f7n7PvZ4fmsvvLi6Pp4mOzH0/aGou3t8fzCz/VZg+jP2fegtfGZsPBOfOelufG0xPPx9P1+nOxFd+c5cOZqjuqOqO5ukeuCn+1jiulJeedchembsfBTf+gAVuIATeEAV+IAUuLfH8+hAAAfyklEQVR4nM1d57qjOBIFJBGMAzbYOAeM03Vvz/u/3SIRlIpkc3e2fsw3fU3QQVJlVRnm4LQYbZe31/5yee5f1zDdzuPx4lRz7Wkxjuc/y/D62j8vl/3rttzGi+GHZAz7uNXh5SFiY2wZlCxs24Qg5Lgeft/uu8NxFEdRFI+Oh939usee6yBEiG1X12M7u/g1Xw07rEFRxmuPYKOGLDtHzIhQaFbdpZh463jIgQ2I8migWoi9CSPjONzQBkMZJWgwiDmhZDPU4AZCOb16tevvY7Lc23SY4Q2DMnaGW6si2c4w23MQlOEvTGROlnseYoADoFwl5JcwUiKXAaTK9yg37m9NZE7Y+Z4JfY3y4P8uyGzV+vN/G+Xd/WWMlNzlv4vy0VVIlroecighSa9rJ/T4F1FOnh34DtVMPffyoFpsHG0CSpsozjTZ8+Pieg6y7faH2M/Jv4VyZbRISUyQZ9x2o6DOJMmMkmC0u1kuqtd/i0cl9c9opy9QLlDTgsPEca7bTbexnTbbh+M0IsXkC4vsc5Qbr3ZElo28xyHo+cDg8PBQvaFiuJ9LlI9RHv1aiA65R59to0l0J04dUMsffTrYT1HuambSRmg5/nQwjMZLVGfBebsPn/khyhssQYh/HUK9jq8+zLyd22cP/Ajl6Qkxfwvh7TeMUHrD1gZ5G3l+ZIt9gnIMrSjs7tuncbqaLSjNVu2DjZ8u9BryyX74AOUO4DvYezS8/TQe/WQqAPE818nJ9TySKQrbJlFqjl8egNP/YHP2Rrna61syw1gnNhaj9IU8B1DnrEzpI5laRB5pPKu5O3gA84n2vW2xvigPvvZay13DGBfzG2rXaqxMQ3LJbQ4L/WCtG3bYO/wqysVTm0gLJRFw5SS+224bQAmqa9+hB1G3mYYTPfspQn1QTpa6LWk7kPEX3zItpitC/izk3iAONne0Z1n+so/e0QPlEelCzAt1Zjk+ux87ZjFy7vryn4a6DmKTHppQZ5TB09EmkhgaY53ME/3L9yLbTebaPI0N/Qs7z86ackeU0xBwfPipetls6Q7g6bKIu9TY6FKXX5YPrKQvUB5cfX6IoX7Kxc3/bhqFh/uhyl/Glv5w2+3GbbugHEPBATdUMV4hGf4xYf+m4rwBPiaUdNGF2lFOIJ+y5Sl7fxXqgvRrnKGiGB3BkYTt3LYVZQyJBDtRtJV0sLUqvUY1tWYJNBjSqkC3oJzcIJ+y6lIb2b/lXSe2ggB0Grq3lulsRhmA/jXlC69eTutoLZs42pfArdpfRs5LZrcpZL7buFmoNKI8gF4PxTFxaGE6mZrq+JfzPJgrMPE1Ttdus0+LXubJ2tUIdOb7jcy2CWUIzZHlSJ9t9W7xO5NwXuRDTJRZQMxbtTiGbWoEektcKAADM47K8zuiXEObDdsS3xm1SQ9rzy9O5J/ccuyTsGVbY1daPjMbeilZf4IS9HpgQ/qsYYcoSX7lNBgtFSw2f86jjUN70kydQHc32Zt1VItyD4JMRJVqBfF1bXz0jiv2PV9ZsJh6qo7PkG6AoJV/kURkQtMEgmm/+6IEvy6+iBw76hS4ZNv4j38JD7Ey7m32w9u2/9DV0b4mLFe0PicgTHLth3IH8RSciCC33QKXhCa0rNiNqfTlEB11+telkz2t99NzmBIbhWGiGp8QjHIMiRB5uZ7bhWSOkhsuR2ljevkSZB9grHxUmKU5Yo7BFLzIh7VaGCXobrVFxvOC2GIm+zVBj1/FHbPNS/zJIsLTrvJNKISjfUTUuU5gpAF3R6lyQ0aOIELgwCUhy2M0uip7DNHrz2vXlT0ImO6hYgek8lSSOTURQJh7Yc/MdLNeWjotKGfQevUFZQBmcd42/zWW17KXLYHpfzwv4z9n4Tb7J7s0/Id+OlX3o9/F3FiguBZ3TQCOE/J6QihvAAbR0pqCEsSrAm8Kl6F/3zD1ZyZMM6Jq+AVRjvJQ3odybgr40hSYI2DCMaQDASihqRSZFzyTiGmbQTaGWPYvE0ENJfwXd0V1PkxFnKrgGu6DcabFE4iVSDBTQBRAkwmgXALeD0EQTWBdwMp+Ol1c502UodlVgsdsJMChE5bB87Mxz7QpcYp75gSCKexNQKzbQEKJjnKiS2grEX5/gmyePfuavdOiCr24M61nJi428+Xblfefk1BbkekGioIrcMoImCwsanKJ/hlc3djUUR4Br6uwCEARkqGko81FBb7MVuKXwgmNIwB8n13tpFGwV37z6Mac0v/soHVDXnw4+jowkO6o1VGutbkSLYJzjfnA5jJi4HC2CJ/dE7oIUncfEzLm27sEG1jzI4J6MNIuwbpxoqFcabyHCFxrW6/xlF+ISSyITXcmZpLNHcNCdbars+VD0s02X4sWaig1hmcIl0R1KROFZFhlzN+n/6PttB7EuPWpWX/3BdVdd/lrueAaSlV4ierAqlGpplfEf1nUrd2SqqecuWjDUMjjhpimHGDNNNFQqkBElQlgaJzsO7+wx7bUyKWsLm4zxUS2n6rLz2tDuUH1TwubjWa3cipev3DOMjY2afd82gK3UH/TMmpVlCrr9vh61bmZQm6+HwLQl9KZkuyN9w7+XYHzj5UFaKtmporyrSgunGev2u15dNnNd89vc5/95bzTtnb51lRWmaW6RhSUijfRQlyP2HcQDhYhgE7Wlzp66jHHMlWMMHVjKijH8ldEXNM+DH0o5ntC3EUyl0fnKC4DBeVW+ozWha/Xekn575HP16zM/oniaVdQyq4JIVdT1/v+D0jQ5SKJa2AlX09BKamUmGvFoy/E/C+Sw/nsutappKGcSV9EkCK/eS7mG+L++UDim65sSssoR+ImFhQlTbv4fyFBM5N0QiSHPWWUkpvAq+L6/5esJyfOgKTJVFx5MkpR/8Tc+fmVHSURJo7nea0xyx4P5IqeOJmWHBmSUE7EOeO7cjHUVGJvfVxMzelivh7slJ9frbhAZCr+pBalqKoLmkWbFdSV0JuzswBIQP2IBO4hOlaQpBdIKEVVnZ/vDDqEarqQko5Ql9/f+7HVZMbChyNb8V0SSklVr/56HWYqHTXyfxhGBgsagDBQ2fkjohRVda4jgfGE/iR6pAqq85T1JO5mFvVTT9yYIkrR+elXHuz7MPlKpYt1Md8dS+4/zJO5m/kkTAgSg7oiSkFa8mXQJYDagco4QugTm/jFvAKetE/IrWZEEHmSi11EKfKe6kscBhpJvoCKvBOSM3A1N+ZD4rtLXI1iJFNAKdiWgrY7yDhKFaNyAhR54K9hGBv3TQk2vJiXJKAUFqxdKUibYRghyaXIpRxE4TRLh9mZ3GgGMUgoEfQdwmG+dr4tBd3KZ0/fDrMduHdKSFAQrS+OMobWNBAA+4jyraOh/Bko35SLDeGBgl3CUb4g/jQaSA8rbITq34WvBQiVfkQ8zCXKCW5uVCjFEBmqPCHf+I9FKlSRbfnRCrfZUH4WLvgkmT/TUIqGcuXoG4jVG9WauuRvsfe/83hTygLjRqYB/GpXan48mHuy0AomD48Q4j3yQQEB4Q+J70HRgHJVlKIawvMdzgN67opHBod0W3Lwb+J/MnEuCwIpXy7e4lS2zACO8uqNelLDgN4kLjYWooAv1YUCZeRAd3wThtTIU2On8yFLkHAJLzpbS0W1QCkyO86wBtJhC/J+JJBDWdE5cV32JoiF0srMUUouE37DQPZzSWgveES6lCDpQZxjSlNTOBJylJIex7XCoR3qlvssTMv479BVgVA5aCkLteBKDOVUcgd4pbm2GD5sUEZeRoO7sSuWKRvEuTeAoZSV5sqOGWgoRPC+lq41/mhMhnkLV/Lkl28rlJIax/24g2iZNk4PZ5eWMKJVG/1iLo+uzYo4Evd8SMGDE73fUyk6so/cKlFG0srkPr73AHsn5wqztKB7sS/H9yX95zI/TTqEw5c77eSVyYQJRSmr5FxZGkKewRnWKjXUu+lMTvkwWS1lctGQPV+GsI07pEtUj7JJWUtUSY7tViiis8/AqsqWaumLVTJFICvflP8Ymiet8oipqT91CJGbnLejaBwE4+i4uxJH0AtJtyJvB4LalUlaG2m/PMS0dNcmnqdrT0pFrcxFxetIh2Bo268SPJ0sBuLd4okZjLbpOQzv6SFemKv53ivnBkrJBejuBoekudalhVA6Nqeb4255Ds/L3TxamcHO4Dfx7DtZANKAj6Em1/GYWBk1AcoUVG/Gc3P2c6Hlf22MaTE45HiPo7laljidLqfQTy6+xeYirD+QyyrOjJfYoxXm6Juyheuic2SOH+V5Op7KpOTH+acMpTJlXIstFCInW9JgrR2MktiMn566QTA7oP6TL1zrwtLq9gUlhY63uZ2zub89WMnfWWLRuhPL1XTpgV/UptVYDrZ6gtHCyNlNV0VKE66ML8XBQUYZSiUEy9dYocFblwzLXq0JkkF5jM05huuoYe89No+Jm30Ay12H2WK0LFoDxna4vMSMnCQs66HY3nVhHixH2aEM/ySF8VvEP09zM5XneihyPlMADFMZJxeXpY1rIWNurg6PvNI0oUzORbfj5LSrX8sGdi4jc7HNOARy2F20xs059DTdxxCYMnbfcbbZnl5+C73JNe4RXctNbyr+p9LZlFzCzJI0Zoq84FxR9KB419HKPI3j4/wwP8bB1FzM314zW7SIG8YnczWO5/SmKJhko3V1lPJNyLlHU3O2GdGbRlEm1YJdC18qqRKYavjFnRmqa6fSB2VXLC3itz7vsuHOD7tw76nrCiRMXPS6/8zpTWl48Rys67EaZfLCfiy39KZteku8hgUjU+WTU92rKDa2ypauImJ6TrWF83VEOlfRNJjCwDTYvFZTB5RGWbqT3dT9ReyoFSN14uyDcVePH5XCVV3Kg1A3lJ9Rpfyo6gy+Gw9lXioHyi9Yl7+LslJNlcRQw3oYT/XaEmXQwxdbreW2JSaiLG/qUUeWVeCvu6lCqTnl9obqE+UoO86lRRzvQps6HOfz7fJquE0VNTlK4u3DlDGzn+XD9rpUd6Ic8F1ywPsLKTK8fn50v29PlLZ72crVLabRktSOuUKp1Go+xWensVArLfnzUOqsrUY3FwrLaiNP2udyD1QwKogWVVrQSqHb8+uCM5b/fCzn9P4IrNcno4x+wnViZzftr+mRDn+0h4oZFm9C9jbTiFfxLnxnN9nJ/paOZnkBrBJn01y27UsUn2q0S4ugn0mmrK192qvDypQ5KgKyVXXLrIMadUVYsYhgbOQ3kcxaWwa0yJ8HftFMY86k+GqbCU+6HYubkGul2deJyhofTfuyjcfi88Sc/miaskGcJFt0q6VeLw0jqhKaq9RBCoewrFoea2VLP0OyOOsF94i3zmR4cPV1RYR47+ynQuQ38Vg14KPJS9tNM3Eb3TGzr2xM24wgL0mDmgnDryPKpnmbTXMcsjOJNrPJMib1fDVpeBayso8T0V9y+4qaV47/3q7ohNXsG2oYHfKfmuRlB92H+DcKfRXNcwv25zimVmO8BjdfthgCn87Ama6KWXFTuj2OJ+bcb5aXBC0d28U4OqT3c2aUb0f0GadGC9sqi0nV6z7bbnosdtB5JDC4STC/1ZX2o0nW7Gyf7eClWGdzGhzebdp6Zpbspi+Xv2q6yeyabipEkx6rqjigTcJEuOPh9+OWmb570lB7KLdPR7nHjJZaN9ZXetOTVh6t35fVULfUFeMk2U232+vieF3qOeXUZJOowRBuXwIPspjlazUJtsJOPrjSTaWm0oaSiVH64bFwU0eq7Esl88RCHXwFPan8oimoVLSg9HMPVYt+AFO9r+DWwe/T811V/EGXCUYbSr9weH+UJ8/ffFP8PsdGH94ndoOQSgRl0TSirI4Bf5RrWevD81bUHyv/kcfbP8rgEJNvgSXfgNLyqyyjjyL93B8rLyI6bYYWV/d6+tYNepQQIdf1PNe2xSPJwJQIKKnvlt3kOIgabERQ+utQWvwmRBTmy33rsvlf+Nbr4iTdnAWZ+E/O8yhYnabT6VI44BpAldEqlOiynEcLetNpNh7tHq5YLwAO9dvI36fHDbtptRiP0pdkr1WqjyIb6bl+GvOSA2t8Z3VIb8DeU+yJtxTOCq7+Atdzm0StLblGOz6ZetqGZfvXWPPTRyGvV1ulMCkxL5qNZ2h/1uOXtXKZ+GE+smBEVbLz8mrfjmmp7hyBdSeipMEVetNuHs3oDPzlqTLaxiRox/S30/hIb7pnN23YB50cSjQ18Us2aSwWLf1Zi0WTCAxglBV7V4c18xLbVJXPdhupkt5uDfsSJW55U7bXXHu5R8KSletwYWTnZXXSJNOfSGkxuMaSqdf5F+FyXpaA7FQfG5LsjK50iILJZl9jtSOO6NKhhcOTA2Wnm4evTjU/ZqwcdsfE5txHscls+1nNhSse5sbEz/snHi+uanrZjnEoVyIvZi35BchPhVLmP5UwKLZxXm5hvHs5Hutr5DiefT0wHhVfAGOBHxmfsBRKG+U3GdlqrrVJ7KrU3tRLnozx0raZfhKycxmTA9z9wSCk2Fd1OSKnCqWsbPBkr4LJkmfxnU6LYBNtgkXOBaYHo+bN/IDMCxnP3TgYj4MZRXGoQ0nelZwN/2bvz3joJspuKj53qpdl5R+1GHW12sU9XWw/KHerWnEl87WQG47kMq6z46PeIOIluMwfHxEUjvLhLqBokMFqxFc3jP2X9CIz2D47FP7GNblbgYBSOu7G2Y9wA2bRi5/5kXkJ16qXUCGba0DTw8XNlh56nN8uHCch3l44YGcZlpfcqOOTBVeebqeIjJiHJ6YUFgcPC5SiMLGqw8YyQy+jFx3CF7ZUEnk2vzqUo1qahpfpMq6Rip7OnC8XL+oRkeHbTPwo5cHDku2LT+Om+sdBBKQW31uMdtfEc/+UUVqfqWr75VF2sXarraGTVWVDLCSNzZRRiquZ672fnyZxwa6yq/KLzw6jTCnUft98ej6Q77LGXGfJy1OZmF8ctNBUuA70+XlWBFbdqaqpVYqKaGBXXHn6xdnL/jAXn8cSwTMIXB2qUC6E78irAH2TIde3baVapacH8QMyornIzxLzs0GCzcsPYnx1Nqhf28rjF+1CedqokOsmFAjhKEVAVvnH7861kHf3/l7nb0LffMEKaw885yWKDS59vivIgJ2ODWGCLoWw619TcVhBwnPhIqEUDkDzJRt9F3e3nEeHtlTT83fNbfm5NOGIipgCKKAUD5TytNZvE3RtP21pxTDd1UdIO1L1LPFgoqA2iueixbhu9XWaDoLanYZnO7uGlEOemPgxCeeiwUPPMkphyfKV3iAyMx4KupY1svP4F0BBtyY8Vmaf1ivtHnjGXShCKKEUVXZer+BcNwwmD2/dJsJ2L3pv00VmrnTaEOQSzxaHurgCP8kmzohU4UdEOQVrTyxgYVIYUXFX17RFQ7vc7gzCdUebqjr3s6r5oFz4i8p4be0Jycrkp+NB/YcUPX97Vabg7vOx3z0hv6r9CxUGlqw88VVS4b/6mjBVXYYAkNeoNM17yvIC5riP5EB087CFA6J0q50gSj25iKOEUirdwIuqaLUTrKoHZW8NkEV8ehlYzFV0/UOZSQIEh4Uz3mJcBkkFOSWUkvuLfyPNIOLtJdbYwqSXJMhMlbgPSFYw50YQ9TjOjqnWKNKDh+lJwkuuu3UR3T+8bo4ctrAsps4EGROb/ce93HZLqFR/LSGvz/znXqvU52xCLnVdM0qhKqOOUori8oPwcokfi/mHR//QH/JLTj2G3ZOsfONwD+JMifVUg5RkgXLCo6keHv9McvsHquWmf8WqRDD3G4TsZ2nXHGhazMqQplJAI9kVSjVyGaVsrfPyZBNZIjvpA4nFSIaqNgISLrj96B/kkKfM04XKr4vutQ1lp53AvpT4FYuqxrMof/90/6ulD62iAyVtbqOm03EfmiTVRasLQClrAC5X64EauchHbLIXw9Xwk4gjQms2ZWNVVxKq2cnuFLVKd3P92CoOBdUYK949+p3yjpYj9BPDmH1PNYQvtK+4SB9ArhOnoVRyCQRT/0dlMIWlnf5GEn+2J4yFdF6Rtb1TKqEjjuXYqxaw6uchXOeVv1bB4ievX+GuVt6lTNR1veVUifpivtIU7iir6jpKReaKnFpds9QmmRmy3mO7g4DGeen2sYTKVq00odOGUrncUru0qSjV2h5CfwA1hkFOsaJueUszSr7nt+jFROTSd5q+mdCoWu0R0FpvXZXvoqqkJmMpg7DyGfi6Bkpu2s4unrGAzKESiVC6We1cgNpq509UjimebFbFlXxh2cX123o2TNZFf3xqhdR6nSxh4Foqna+A0rs9aGYW14AaC8k6lYj6lukyMTA18pSJOncCdxAAPS2UhrJd+pOI/R6g1lI55U3wTtMhyuVwXpC6DgbtOk/w6midNvQj53qvGQ0IEbxhUGspg6arjPOvag5RLqdcjaungyLQu+8I20ivXOppjm69b5DaqkhsyQFmKtHGcMxmjf/QpSIoiWpCYC1hJDWoy3Pyor/egz5XfyMROI/eyQTrbTB1lHompCV0jzDf9R20oj90qfC3ktH80WlinVe8mpw2vEsyW5CLf9jKm2mPELt5AqUj9IY6AEqglCq+CL/rndmcUtM4rcRtyWQzXW92y5RWa6XiqJZTBcv0Pse2OJqLzp1UxQdECbmZxcYuQOPJbPcE60KO8G3JFN1M/trLkbzOLTnzw+NKZ/W3ctVN9V7U2BBcOoDTW3Kq16OE5IXYWkpvPGkh7GB/q7w3l80uO+chWgHuOxQNUrbeV9drvNkmHFKuiUf6mRVsCTFRqPGWL2ed1KEEE87F1lInrL2bnXlmDXL5e/NTLCHrcCxkMbE2eYKCxGKlCSH/vOdimjId7F2vyi6BhJyBajuLWpSg8BfEcE0nY+bb5InGhWyO2BxzcVDomPwBlLWtPJy3YueuFSuJLzrrssVOzmBsA5pKuJcp2JyICIwW7oBJAzBcJSsjLf/QueJzVIS5+XXsD16hSIoBKSD6Y1+EPbmCZDe0K2tQgo2mLHHXm2/o0N1FjJvQDDB6B2VcwrYs0t94Awmm0D1w/vdZo+JEREk4BbVqAoaEQZRmBK0FuVv0DerZiAWeR6OkccaA6BLj25DxmrkpKA8sbhM7eE3ilsZzSNxycCtlkX20ojSXYL/op3hJCnwJS4mSLov1w6UaDXKfqMOar012ovCCXKovNynBcoeBC9hQFey9W9/7ew1tPFuywUeNgas8Kz4Pewu6MU0LO/6lv1Xbjm3gyYG5mGpDwoYl54KBndFsJbW2FSX8reynuGgXRkMciObAzbzczcRd9iySf/2HLr3Kd2WhasPXt3+j3i5OExCkpKJ1QwmveywyOXPyqHVZWJihy1Vcfio5j4MzacDlAC6DBD+1hp0jOVhrmtVfapNRalGakz34vQwpHWteu2rxZbd5W3mmBjeFRR2Tb1bsLONgc6h1GVlySt8KFNf2vj7jph5ltrKgmbKIJHZnl7rptNipAcptePRFsuJF48emtY5qHmSgixT1WIBpFEhretkRpbkDZ8qLlIuaLA7L/om595gZRfskYQrPtJvrBPty3VlQyhl+Y+G9RpSZNAeFktxPZbFvOvuaTSlf+dSgYhktdL9Ou7jBLGcvq2xbSP3EmteuD8rM8oEWpKN0EZ83HPeQR3NNixVuu26XqSRIMYlvkEB1Hi316FpQ0mpnwHSSi+xamdw7pWDRyk19gvPYX8ocZXUBXoMdMEe+F0rz9AA+OnaUfO3Zo6Y+yueEvYfSkj2Gvrh3bS8s2I4y2+8WcL7XU5X/AC5F8TnGtZrSdgc+NzFgzbU/SpiPkkS15IK6ejefYHyoGBeAOMVet5qm3VCaq4dutlsKizdr6930JVYCUvvQ+gC8a4cU4x4oM6GS6NwWXbQ8ydPW7lajr5awg7daunsA+A1Q0iw+PkFJi2ZoDE48bFdRdNMOnnaHSPybvtEmS30ibafHQY4eKM1pqC9bmwD599Pjy+9SLkyFiPzXEWCYIz0HzvLCLiVbP0FpmmOAAzhPKI95Oro5fRpAYuK4txE08uCpKwIkqcmdHgQlzATcK+Q3o+dDX55ef1kjyyaO99rC41489CbbVrPSOgBKmKH74azm8uB4f+aFInSwtKwYctzn/Vg3MzPodD25wB+1gXqjNM0l0KET+7eGV8+ieXp7Y1ZNoyDX8/D7lrJSBXW0uAFi2vJ6navK6QOUZgR1asfeq5WxT1eLIBiPx0GwWLUyD7imnuV00XVU+gSluQKdzthJ5i0HZDrTdJ6ATJokHfUAmT5CaZqww4eW/+0sqRtoE9acn0daxkA3+hCluayxDjHCu35cXqUgrdWe+h11FOhTlED0tFpVrpGO2x8A0jg16osT9D22yuljlI059sRxwmMD9wRpdqSKRP1DPzlpXdDnKM2gMSkfExeH86AbO5oE89BuLvRgOV9shC9QmrO26gy0UuDlfIgW9Vgni+hwvrR3A8d236Uh0jcozVOHE7CsVJZnr8N0e4yjcbCgFIyj+LhNw7VNSwN1KDBhJ32U82FRVn1m27GyIs60AE5BrAx/c5VEgci6fSi/iNIMf6OSt0qqZ/R/jjIzUn4dpO55+Z+jNGNAeR+SLO9zCTIcyuYw5tdEjG+Y63AoTfP6e5vTgdJ3etMgKOEwwwBkwwV0etMwKM3V+jem03l1r9DRSAOhzJgQHvqwF7K+ZzsFDYaSNeUajttaqGMrsE40IEpaflBrCCVQXnWdsA5urAh7PUTiXYbZkAUNijKTKj/PvF9AOd6iyZfjOsk6XO4O89Eojkfzw255eyUOLWHIAPPrs6v9/U9vL10zDYwyo+n4uAtfTxpOT56v6zk9HKO8sqFOk1kQHQ/p+bourw93tPr80PRfVarLK1rqf44AAAAASUVORK5CYII=;strokeColor=#FFFFFF;shadow=1;fillColor=#000000;fontColor=default;labelPosition=right;align=left;" vertex="1" parent="1">
                    <mxGeometry x="450.04" y="194.52" width="83.93" height="81" as="geometry"/>
                </mxCell>
                <mxCell id="71" style="edgeStyle=none;html=1;entryX=0;entryY=0.5;entryDx=0;entryDy=0;labelBackgroundColor=none;fontColor=default;strokeColor=#FFFFFF;fillColor=#000000;" edge="1" parent="1" source="42" target="36">
                    <mxGeometry relative="1" as="geometry"/>
                </mxCell>
                <mxCell id="73" value="Network traffic flow to traefik" style="edgeLabel;html=1;align=center;verticalAlign=middle;resizable=0;points=[];fontColor=default;" vertex="1" connectable="0" parent="71">
                    <mxGeometry x="-0.1935" y="-1" relative="1" as="geometry">
                        <mxPoint x="11" y="19" as="offset"/>
                    </mxGeometry>
                </mxCell>
                <mxCell id="42" value="Pihole&#10;(DNS)" style="shape=image;verticalLabelPosition=bottom;labelBackgroundColor=none;verticalAlign=top;aspect=fixed;imageAspect=0;image=https://raw.githubusercontent.com/walkxcode/dashboard-icons/main/png/pihole.png;fillColor=#000000;strokeColor=#FFFFFF;fontColor=default;" vertex="1" parent="1">
                    <mxGeometry x="250" y="365.53999999999996" width="81" height="81" as="geometry"/>
                </mxCell>
                <mxCell id="45" value="Browser" style="shape=image;verticalLabelPosition=bottom;labelBackgroundColor=none;verticalAlign=top;aspect=fixed;imageAspect=0;image=https://raw.githubusercontent.com/walkxcode/dashboard-icons/main/png/edge.png;fillColor=#000000;fontColor=default;strokeColor=#FFFFFF;" vertex="1" parent="1">
                    <mxGeometry x="35" y="306.28999999999996" width="70" height="70" as="geometry"/>
                </mxCell>
                <mxCell id="48" value="Proxmox" style="shape=image;verticalLabelPosition=bottom;labelBackgroundColor=none;verticalAlign=top;aspect=fixed;imageAspect=0;image=https://raw.githubusercontent.com/walkxcode/dashboard-icons/main/png/proxmox.png;fillColor=#000000;fontColor=default;strokeColor=#FFFFFF;" vertex="1" parent="1">
                    <mxGeometry x="730" y="315.55999999999995" width="92" height="79.96" as="geometry"/>
                </mxCell>
                <mxCell id="49" value="Truenas" style="shape=image;verticalLabelPosition=bottom;labelBackgroundColor=none;verticalAlign=top;aspect=fixed;imageAspect=0;image=https://raw.githubusercontent.com/walkxcode/dashboard-icons/main/png/truenas.png;fillColor=#000000;fontColor=default;strokeColor=#FFFFFF;" vertex="1" parent="1">
                    <mxGeometry x="850" y="315.5199999999999" width="80" height="80" as="geometry"/>
                </mxCell>
                <mxCell id="50" value="Nextclouod" style="shape=image;verticalLabelPosition=bottom;labelBackgroundColor=none;verticalAlign=top;aspect=fixed;imageAspect=0;image=https://raw.githubusercontent.com/walkxcode/dashboard-icons/main/png/nextcloud.png;fillColor=#000000;fontColor=default;strokeColor=#FFFFFF;" vertex="1" parent="1">
                    <mxGeometry x="736" y="445.53999999999996" width="80" height="80" as="geometry"/>
                </mxCell>
                <mxCell id="51" value="Authentik" style="shape=image;verticalLabelPosition=bottom;labelBackgroundColor=none;verticalAlign=top;aspect=fixed;imageAspect=0;image=https://raw.githubusercontent.com/walkxcode/dashboard-icons/main/png/authentik-orange.png;fillColor=#000000;fontColor=default;strokeColor=#FFFFFF;" vertex="1" parent="1">
                    <mxGeometry x="850" y="445.53999999999996" width="80" height="80" as="geometry"/>
                </mxCell>
                <mxCell id="52" value="Bare-metal/VM service" style="text;html=1;resizable=0;autosize=1;align=center;verticalAlign=middle;points=[];fillColor=none;strokeColor=none;rounded=0;shadow=1;labelBackgroundColor=none;fontColor=default;" vertex="1" parent="1">
                    <mxGeometry x="590" y="345.53999999999996" width="140" height="20" as="geometry"/>
                </mxCell>
                <mxCell id="53" value="Kubernetes service" style="text;html=1;resizable=0;autosize=1;align=center;verticalAlign=middle;points=[];fillColor=none;strokeColor=none;rounded=0;shadow=1;labelBackgroundColor=none;fontColor=default;" vertex="1" parent="1">
                    <mxGeometry x="600" y="475.53999999999996" width="120" height="20" as="geometry"/>
                </mxCell>
                <mxCell id="56" value="Servers" style="sketch=0;pointerEvents=1;shadow=0;dashed=0;html=1;strokeColor=none;fillColor=#505050;labelPosition=center;verticalLabelPosition=bottom;verticalAlign=top;outlineConnect=0;align=center;shape=mxgraph.office.servers.application_server;labelBackgroundColor=none;fontColor=default;" vertex="1" parent="1">
                    <mxGeometry x="47" y="426.28999999999996" width="46" height="56" as="geometry"/>
                </mxCell>
                <mxCell id="58" value="Platform Services" style="text;html=1;resizable=0;autosize=1;align=center;verticalAlign=middle;points=[];fillColor=none;strokeColor=none;rounded=0;shadow=1;labelBackgroundColor=none;fontColor=default;" vertex="1" parent="1">
                    <mxGeometry x="712" y="249.99999999999997" width="110" height="20" as="geometry"/>
                </mxCell>
                <mxCell id="65" value="1) I want to access Proxmox service securely and I don't want remember IP address" style="whiteSpace=wrap;html=1;shape=mxgraph.basic.cloud_callout;shadow=1;dashed=1;labelBackgroundColor=none;fontColor=default;strokeColor=#FFFFFF;fillColor=#000000;direction=east;flipV=0;" vertex="1" parent="1">
                    <mxGeometry x="20" y="130" width="190" height="140" as="geometry"/>
                </mxCell>
                <mxCell id="69" value="2) I give you http://proxmox.custom_domain.tld" style="whiteSpace=wrap;html=1;shape=mxgraph.basic.roundRectCallout;dx=30;dy=15;size=5;boundedLbl=1;shadow=1;dashed=1;labelBackgroundColor=none;fontColor=default;strokeColor=#FFFFFF;fillColor=#000000;direction=east;flipV=1;" vertex="1" parent="1">
                    <mxGeometry x="20" y="540" width="199" height="100" as="geometry"/>
                </mxCell>
                <mxCell id="70" value="3) Here you go, DNS of proxmox.custom_domain.tld is traefik (Container), which is traefik IP address in type of loadbalancer or others&lt;br&gt;e.g. 192.168.1.250" style="whiteSpace=wrap;html=1;shape=mxgraph.basic.roundRectCallout;dx=30;dy=15;size=5;boundedLbl=1;shadow=1;dashed=1;labelBackgroundColor=none;fontColor=default;strokeColor=#FFFFFF;fillColor=#000000;direction=east;flipV=0;flipH=1;" vertex="1" parent="1">
                    <mxGeometry x="150" y="243.7" width="170" height="115.54" as="geometry"/>
                </mxCell>
                <mxCell id="74" value="4) My router has proxmox.custom_domain.tld entry! It will go to http://192.168.1.10:8006 loadbalancer!" style="whiteSpace=wrap;html=1;shape=mxgraph.basic.roundRectCallout;dx=30;dy=15;size=5;boundedLbl=1;shadow=1;dashed=1;labelBackgroundColor=none;fontColor=default;strokeColor=#FFFFFF;fillColor=#000000;direction=east;flipV=1;flipH=1;" vertex="1" parent="1">
                    <mxGeometry x="300" y="492" width="170" height="115.54" as="geometry"/>
                </mxCell>
                <mxCell id="76" value="5.2) Let me get you a certificate from the provider (Letsencrypt)&lt;br&gt;Note: (not in process) this is executed when you configured cert-manager." style="whiteSpace=wrap;html=1;shape=mxgraph.basic.roundRectCallout;dx=30;dy=15;size=5;boundedLbl=1;shadow=1;dashed=1;labelBackgroundColor=none;fontColor=default;strokeColor=#FFFFFF;fillColor=#000000;direction=west;flipV=1;flipH=1;" vertex="1" parent="1">
                    <mxGeometry x="543" y="120" width="234" height="90" as="geometry"/>
                </mxCell>
                <mxCell id="77" value="6) Nah, your SSL certificate :)" style="whiteSpace=wrap;html=1;shape=mxgraph.basic.roundRectCallout;dx=30;dy=15;size=5;boundedLbl=1;shadow=1;dashed=1;labelBackgroundColor=none;fontColor=default;strokeColor=#FFFFFF;fillColor=#000000;direction=east;flipV=0;flipH=1;" vertex="1" parent="1">
                    <mxGeometry x="200" y="10" width="234" height="90" as="geometry"/>
                </mxCell>
            </root>
        </mxGraphModel>
    </diagram>
</mxfile>